# xmcd
# 
# Track frame offsets:
#     150
#     47292
#     79060
#     133285
#     150515
#     160175
#     174252
#     209092
#     249530
#     280325
#     301417
#     315995
# 
# Disc length: 4430
# 
# Revision: 1
# Processed by: cddbd v1.5.2PL0 Copyright (c) Steve Scherf et al.
# Submitted via: fre:ac v1.0.27
# 
DISCID=9a114c0c
DTITLE=Yehudi Menuhin - Legend CD 2
DYEAR=0
DGENRE=Classical
TTITLE0=Beethoven, Violin Concerto in D - III Rondo
TTITLE1=Paganini, Violin Concerto No. 2 in B minor - III Rondo ("La Campanella")
TTITLE2=Elgar, Violin Concerto in B minor - II Andante
TTITLE3=Vivaldi, The four Seasons - Winter I
TTITLE4=Vivaldi, The four Seasons - Winter II
TTITLE5=Vivaldi, The four Seasons - Winter III
TTITLE6=J.S. Bach, Concerto fo two violins in D minor - II Largo ma non tanto
TTITLE7=Mozaart, Violin Concerto No. 5 in A - III Rondeau
TTITLE8=Wienawski, Légende
TTITLE9=Delibes, Sylvia - Pas de deux (Act III)
TTITLE10=Gershwin, Embraceable You
TTITLE11=Gershwin, Oh, lady, be good!
EXTD=
EXTT0=
EXTT1=
EXTT2=
EXTT3=
EXTT4=
EXTT5=
EXTT6=
EXTT7=
EXTT8=
EXTT9=
EXTT10=
EXTT11=
PLAYORDER=
